<?xml version="1.0" encoding="iso-8859-1"?>
<!-- Generator: Adobe Illustrator 19.0.0, SVG Export Plug-In . SVG Version: 6.00 Build 0)  -->
<svg version="1.1" id="Layer_1" xmlns="http://www.w3.org/2000/svg" xmlns:xlink="http://www.w3.org/1999/xlink" x="0px" y="0px"
	 viewBox="0 0 512 512" style="enable-background:new 0 0 512 512;" xml:space="preserve">
<g>
	<g>
		<path d="M465.743,209.744c-19.029,0-35.404,11.551-42.498,28.008h-36.671c-3.162-22.735-12.138-43.633-25.382-61.137l25.97-25.97
			c16.653,6.621,36.401,3.208,49.855-10.246c18.035-18.036,18.035-47.381,0-65.417c-18.035-18.036-47.381-18.035-65.417,0.001
			c-13.454,13.455-16.865,33.203-10.245,49.854l-25.972,25.97c-17.504-13.242-38.403-22.22-61.137-25.382V88.755
			c16.457-7.094,28.008-23.47,28.008-42.499c0-25.504-20.751-46.256-46.257-46.256c-25.506,0-46.257,20.751-46.257,46.256
			c0,19.029,11.551,35.405,28.008,42.499v36.67c-22.735,3.162-43.633,12.139-61.137,25.382l-25.97-25.97
			c6.621-16.653,3.209-36.4-10.245-49.854l-0.001-0.001c-18.035-18.036-47.382-18.033-65.417,0c-18.08,18.08-18.078,47.341,0,65.417
			c13.455,13.455,33.203,16.865,49.855,10.246l25.972,25.971c-13.242,17.504-22.22,38.403-25.382,61.137H88.754
			c-7.094-16.457-23.469-28.008-42.498-28.008C20.751,209.744,0,230.494,0,256.001s20.751,46.257,46.257,46.257
			c19.029,0,35.404-11.551,42.497-28.008h36.671c3.162,22.735,12.139,43.633,25.382,61.137l-25.97,25.97
			c-16.653-6.619-36.401-3.208-49.855,10.246c-18.081,18.08-18.078,47.339,0,65.417c35.455,35.455,94.107-3.459,75.663-49.855
			l25.971-25.97c17.504,13.242,38.403,22.22,61.137,25.382v36.67c-16.457,7.094-28.008,23.47-28.008,42.498
			c0,25.506,20.751,46.257,46.257,46.257c25.506,0,46.257-20.75,46.257-46.257c0-19.029-11.551-35.404-28.008-42.498v-36.67
			c22.735-3.162,43.633-12.139,61.137-25.382l25.97,25.97c-18.522,46.59,40.081,85.437,75.663,49.854
			c18.035-18.036,18.035-47.381,0-65.417c-13.454-13.455-33.203-16.865-49.855-10.246l-25.972-25.972
			c13.242-17.504,22.22-38.403,25.382-61.137h36.671c7.094,16.457,23.469,28.008,42.498,28.008c25.506,0,46.257-20.75,46.257-46.257
			S491.249,209.744,465.743,209.744z M256,296.699c-22.478,0-40.698-18.222-40.698-40.698s18.221-40.698,40.698-40.698
			s40.698,18.221,40.698,40.698S278.478,296.699,256,296.699z"/>
	</g>
</g>
<g>
</g>
<g>
</g>
<g>
</g>
<g>
</g>
<g>
</g>
<g>
</g>
<g>
</g>
<g>
</g>
<g>
</g>
<g>
</g>
<g>
</g>
<g>
</g>
<g>
</g>
<g>
</g>
<g>
</g>
</svg>
